# xmcd
#
# Track frame offsets:
#	182
#	16895
#	29352
#	41020
#	50690
#	64735
#	80822
#	95737
#	110770
#	122710
#	128325
#	141135
#	152617
#	161340
#	170392
#	179830
#	189492
#
# Disc length: 2673 seconds
# Revision: 5
# Processed by: cddbd v1.5.2PL0 Copyright (c) Steve Scherf et al.
# Submitted via: dBpowerAMP V12.0
#
DISCID=e90a6f11
DTITLE=Various Artist - Great Sound of Country, Vol. 2
DYEAR=1994
DGENRE=Country
TTITLE0=Merle Haggard - I Think I'll Just Stay Here and Drink
TTITLE1=Sandy Posey - Single Girl
TTITLE2=Conway Twitty - To See an Angel Cry
TTITLE3=Ned Miller - From a Jack to a King
TTITLE4=Roger Whittaker - Summer in the Country
TTITLE5=Brenda Lee - Comin' on Strong
TTITLE6=Bill Anderson - Whispering Pines
TTITLE7=Roy Clarke - Yesterday When I Was Young
TTITLE8=Joe Stamply - The Most Beautiful Girl
TTITLE9=Red Sovine - The Best Years of My Life
TTITLE10=Freddy Weller - Midnight Driver
TTITLE11=Ferlin Husky - I Wished a Thousand Times
TTITLE12=George Jones - That's the Way I Feel
TTITLE13=Justin Tubb - Five Minutes of the Latest Blues
TTITLE14=Johnny Cash - Down the Street to 301
TTITLE15=Jeannie C Riley - He Made a Woman out of Me
TTITLE16=Buck Owens - Down on the Corner of Love
EXTD=
EXTT0=
EXTT1=
EXTT2=
EXTT3=
EXTT4=
EXTT5=
EXTT6=
EXTT7=
EXTT8=
EXTT9=
EXTT10=
EXTT11=
EXTT12=
EXTT13=
EXTT14=
EXTT15=
EXTT16=
PLAYORDER=
